<COLLADA xmlns="http://www.collada.org/2005/11/COLLADASchema" version="1.4.1">
  <asset>
    <contributor />
    <created>2026-02-16T15:11:57.250493</created>
    <modified>2026-02-16T15:11:57.250499</modified>
    <unit name="meter" meter="1.0" />
    <up_axis>Z_UP</up_axis>
  </asset>
  <library_effects>
    <effect id="effect_KET12_Square_12mm" name="effect_KET12_Square_12mm">
      <profile_COMMON>
        <technique sid="common">
          <phong>
            <emission>
              <color>0.0 0.0 0.0 1.0</color>
            </emission>
            <ambient>
              <color>0.0 0.0 0.0 1.0</color>
            </ambient>
            <diffuse>
              <color>0.6784313917160034 0.7098039388656616 0.7411764860153198 1.0</color>
            </diffuse>
            <specular>
              <color>1 1 1 1.0</color>
            </specular>
            <shininess>
              <float>0.0</float>
            </shininess>
            <reflective>
              <color>0.0 0.0 0.0 1.0</color>
            </reflective>
            <reflectivity>
              <float>0.0</float>
            </reflectivity>
            <transparent>
              <color>0.0 0.0 0.0 1.0</color>
            </transparent>
            <transparency>
              <float>1.0</float>
            </transparency>
          </phong>
        </technique>
        <extra>
          <technique profile="GOOGLEEARTH">
            <double_sided>0</double_sided>
          </technique>
        </extra>
      </profile_COMMON>
    </effect>
  </library_effects>
  <library_geometries>
    <geometry id="geometry0" name="KET12_Square_12mm">
      <mesh>
        <source id="cubeverts-array0">
          <float_array count="36" id="cubeverts-array0-array">-0.006 -0.004 -0.025 -0.006 -0.004 0.0238 -0.006 0.004 -0.025 -0.006 0.004 0.0238 -0.0048 -0.0028 0.025 -0.0048 0.0028 0.025 0.0048 -0.0028 0.025 0.0048 0.0028 0.025 0.006 -0.004 -0.025 0.006 -0.004 0.0238 0.006 0.004 -0.025 0.006 0.004 0.0238</float_array>
          <technique_common>
            <accessor count="12" source="#cubeverts-array0-array" stride="3">
              <param type="float" name="X" />
              <param type="float" name="Y" />
              <param type="float" name="Z" />
            </accessor>
          </technique_common>
        </source>
        <source id="cubenormals-array0">
          <float_array count="60" id="cubenormals-array0-array">1 0 0 1 0 -0 -0 1 0 0 1 0 -1 0 0 -1 0 0 -0 -1 0 0 -1 0 0 0 1 -0 0 1 0 0 -1 -0 -0 -1 0 0.707107 0.7071065 0 0.7071071 0.7071065 -0.707107 0 0.7071065 -0.7071071 0 0.7071065 0.7071071 0 0.7071065 0.707107 0 0.7071065 0 -0.7071069 0.7071066 0 -0.7071069 0.7071066</float_array>
          <technique_common>
            <accessor count="20" source="#cubenormals-array0-array" stride="3">
              <param type="float" name="X" />
              <param type="float" name="Y" />
              <param type="float" name="Z" />
            </accessor>
          </technique_common>
        </source>
        <vertices id="cubeverts-array0-vertices">
          <input semantic="POSITION" source="#cubeverts-array0" />
        </vertices>
        <triangles count="20" material="ref_KET12_Square_12mm">
          <input offset="0" semantic="VERTEX" source="#cubeverts-array0-vertices" />
          <input offset="1" semantic="NORMAL" source="#cubenormals-array0" />
          <p>11 0 9 0 8 0 10 1 11 1 8 1 3 2 11 2 10 2 2 3 3 3 10 3 1 4 3 4 2 4 0 5 1 5 2 5 9 6 1 6 0 6 8 7 9 7 0 7 4 8 6 8 7 8 5 9 4 9 7 9 8 10 0 10 2 10 10 11 8 11 2 11 11 12 3 12 5 12 7 13 11 13 5 13 3 14 1 14 4 14 5 15 3 15 4 15 7 16 6 16 9 16 11 17 7 17 9 17 1 18 9 18 6 18 4 19 1 19 6 19</p>
        </triangles>
      </mesh>
    </geometry>
  </library_geometries>
  <library_materials>
    <material id="mat_KET12_Square_12mm" name="KET12_Square_12mm">
      <instance_effect url="#effect_KET12_Square_12mm" />
    </material>
  </library_materials>
  <library_visual_scenes>
    <visual_scene id="myscene">
      <node id="node0" name="node0">
        <instance_geometry url="#geometry0">
          <bind_material>
            <technique_common>
              <instance_material symbol="ref_KET12_Square_12mm" target="#mat_KET12_Square_12mm" />
            </technique_common>
          </bind_material>
        </instance_geometry>
      </node>
    </visual_scene>
  </library_visual_scenes>
  <scene>
    <instance_visual_scene url="#myscene" />
  </scene>
</COLLADA>
