<COLLADA xmlns="http://www.collada.org/2005/11/COLLADASchema" version="1.4.1">
  <asset>
    <contributor />
    <created>2026-02-16T15:12:48.808643</created>
    <modified>2026-02-16T15:12:48.808650</modified>
    <unit name="meter" meter="1.0" />
    <up_axis>Z_UP</up_axis>
  </asset>
  <library_effects>
    <effect id="effect_RGOCG8_50_8mm" name="effect_RGOCG8_50_8mm">
      <profile_COMMON>
        <technique sid="common">
          <phong>
            <emission>
              <color>0.0 0.0 0.0 1.0</color>
            </emission>
            <ambient>
              <color>0.0 0.0 0.0 1.0</color>
            </ambient>
            <diffuse>
              <color>0.6784313917160034 0.7098039388656616 0.7411764860153198 1.0</color>
            </diffuse>
            <specular>
              <color>1 1 1 1.0</color>
            </specular>
            <shininess>
              <float>0.0</float>
            </shininess>
            <reflective>
              <color>0.0 0.0 0.0 1.0</color>
            </reflective>
            <reflectivity>
              <float>0.0</float>
            </reflectivity>
            <transparent>
              <color>0.0 0.0 0.0 1.0</color>
            </transparent>
            <transparency>
              <float>1.0</float>
            </transparency>
          </phong>
        </technique>
        <extra>
          <technique profile="GOOGLEEARTH">
            <double_sided>0</double_sided>
          </technique>
        </extra>
      </profile_COMMON>
    </effect>
  </library_effects>
  <library_geometries>
    <geometry id="geometry0" name="RGOCG8_50_8mm">
      <mesh>
        <source id="cubeverts-array0">
          <float_array count="654" id="cubeverts-array0-array">-0.004 -4.079193e-10 -0.025 -0.004 -4.079193e-10 0.0242 -0.003984347 -0.0003535208 -0.025 -0.003984347 -0.0003535208 0.0242 -0.003984347 0.00035352 -0.025 -0.003984347 0.00035352 0.0242 -0.003937512 -0.0007042743 -0.025 -0.003937512 -0.0007042743 0.0242 -0.003937512 0.0007042738 -0.025 -0.003937512 0.0007042738 0.0242 -0.003859859 -0.001049516 -0.025 -0.003859859 -0.001049516 0.0242 -0.003859859 0.001049516 -0.025 -0.003859859 0.001049516 0.0242 -0.003751999 -0.001386544 -0.025 -0.003751999 -0.001386544 0.0242 -0.003751999 0.001386543 -0.025 -0.003751999 0.001386543 0.0242 -0.003614774 -0.00171272 -0.025 -0.003614774 -0.00171272 0.0242 -0.003614774 0.00171272 -0.025 -0.003614774 0.00171272 0.0242 -0.003449258 -0.002025492 -0.025 -0.003449258 -0.002025492 0.0242 -0.003449258 0.002025492 -0.025 -0.003449258 0.002025492 0.0242 -0.003256747 -0.002322412 -0.025 -0.003256747 -0.002322412 0.0242 -0.003256747 0.002322412 -0.025 -0.003256747 0.002322412 0.0242 -0.0032 -4.079193e-10 0.025 -0.003187478 -0.0002828166 0.025 -0.003187478 0.000282816 0.025 -0.003150009 -0.0005634195 0.025 -0.003150009 0.0005634194 0.025 -0.003087888 -0.0008396129 0.025 -0.003087888 0.0008396121 0.025 -0.003038748 -0.002601156 -0.025 -0.003038748 -0.002601156 0.0242 -0.003038748 0.002601155 -0.025 -0.003038748 0.002601155 0.0242 -0.003001599 -0.001109235 0.025 -0.003001599 0.001109235 0.025 -0.002891819 -0.001370176 0.025 -0.002891819 0.001370176 0.025 -0.002796967 -0.002859542 -0.025 -0.002796967 -0.002859542 0.0242 -0.002796967 0.002859541 -0.025 -0.002796967 0.002859541 0.0242 -0.002759406 -0.001620394 0.025 -0.002759406 0.001620393 0.025 -0.002605398 -0.00185793 0.025 -0.002605398 0.001857929 0.025 -0.002533295 -0.003095548 -0.025 -0.002533295 -0.003095548 0.0242 -0.002533295 0.003095547 -0.025 -0.002533295 0.003095547 0.0242 -0.002430999 -0.002080924 0.025 -0.002430999 0.002080924 0.025 -0.002249797 -0.003307327 -0.025 -0.002249797 -0.003307327 0.0242 -0.002249797 0.003307327 -0.025 -0.002249797 0.003307327 0.0242 -0.002237573 -0.002287633 0.025 -0.002237573 0.002287633 0.025 -0.002026636 -0.002476438 0.025 -0.002026636 0.002476438 0.025 -0.001948691 -0.003493222 -0.025 -0.001948691 -0.003493222 0.0242 -0.001948691 0.003493222 -0.025 -0.001948691 0.003493222 0.0242 -0.001799838 -0.002645862 0.025 -0.001799838 0.002645862 0.025 -0.001632334 -0.003651778 -0.025 -0.001632334 -0.003651778 0.0242 -0.001632334 0.003651778 -0.025 -0.001632334 0.003651778 0.0242 -0.001558953 -0.002794578 0.025 -0.001558953 0.002794578 0.025 -0.001305867 -0.002921423 0.025 -0.001305867 0.002921422 0.025 -0.001303202 -0.003781754 -0.025 -0.001303202 -0.003781754 0.0242 -0.001303202 0.003781754 -0.025 -0.001303202 0.003781754 0.0242 -0.001042562 -0.003025403 0.025 -0.001042562 0.003025403 0.025 -0.0009638708 -0.003882133 -0.025 -0.0009638708 -0.003882133 0.0242 -0.0009638708 0.003882133 -0.025 -0.0009638708 0.003882133 0.0242 -0.0007710965 -0.003105706 0.025 -0.0007710965 0.003105706 0.025 -0.0006169953 -0.003952128 -0.025 -0.0006169953 -0.003952128 0.0242 -0.0006169953 0.003952127 -0.025 -0.0006169953 0.003952127 0.0242 -0.0004935963 -0.003161703 0.025 -0.0004935963 0.003161703 0.025 -0.0002652917 -0.003991193 -0.025 -0.0002652917 -0.003991193 0.0242 -0.0002652917 0.003991192 -0.025 -0.0002652917 0.003991192 0.0242 -0.0002122333 -0.003192954 0.025 -0.0002122333 0.003192954 0.025 0 -4.079193e-10 -0.025 0 -4.079193e-10 0.025 7.079077e-05 -0.003199217 0.025 7.079077e-05 0.003199217 0.025 8.848858e-05 -0.003999021 -0.025 8.848858e-05 -0.003999021 0.0242 8.848858e-05 0.003999021 -0.025 8.848858e-05 0.003999021 0.0242 0.000353261 -0.003180441 0.025 0.000353261 0.003180441 0.025 0.000441576 -0.003975552 -0.025 0.000441576 -0.003975552 0.0242 0.000441576 0.003975552 -0.025 0.000441576 0.003975552 0.0242 0.0006329665 -0.003136775 0.025 0.0006329665 0.003136774 0.025 0.0007912083 -0.003920968 -0.025 0.0007912083 -0.003920968 0.0242 0.0007912083 0.003920968 -0.025 0.0007912083 0.003920968 0.0242 0.0009077177 -0.003068558 0.025 0.0009077177 0.003068558 0.025 0.001134647 -0.003835698 -0.025 0.001134647 -0.003835698 0.0242 0.001134647 0.003835697 -0.025 0.001134647 0.003835697 0.0242 0.001175365 -0.002976326 0.025 0.001175365 0.002976326 0.025 0.001433814 -0.002860801 0.025 0.001433814 0.0028608 0.025 0.001469207 -0.003720408 -0.025 0.001469207 -0.003720408 0.0242 0.001469207 0.003720408 -0.025 0.001469207 0.003720408 0.0242 0.001681041 -0.002722885 0.025 0.001681041 0.002722885 0.025 0.001792267 -0.003576001 -0.025 0.001792267 -0.003576001 0.0242 0.001792267 0.003576 -0.025 0.001792267 0.003576 0.0242 0.001915112 -0.002563659 0.025 0.001915112 0.002563659 0.025 0.002101301 -0.003403606 -0.025 0.002101301 -0.003403606 0.0242 0.002101301 0.003403606 -0.025 0.002101301 0.003403606 0.0242 0.002134194 -0.002384369 0.025 0.002134194 0.002384369 0.025 0.002336574 -0.002186419 0.025 0.002336574 0.002186419 0.025 0.002393889 -0.003204574 -0.025 0.002393889 -0.003204574 0.0242 0.002393889 0.003204574 -0.025 0.002393889 0.003204574 0.0242 0.002520666 -0.001971357 0.025 0.002520666 0.001971356 0.025 0.002667743 -0.002980462 -0.025 0.002667743 -0.002980462 0.0242 0.002667743 0.002980462 -0.025 0.002667743 0.002980462 0.0242 0.00268503 -0.001740866 0.025 0.00268503 0.001740865 0.025 0.002828382 -0.00149675 0.025 0.002828382 0.001496749 0.025 0.002920717 -0.002733024 -0.025 0.002920717 -0.002733024 0.0242 0.002920717 0.002733023 -0.025 0.002920717 0.002733023 0.0242 0.002949596 -0.00124092 0.025 0.002949596 0.00124092 0.025 0.003047727 -0.0009753784 0.025 0.003047727 0.0009753781 0.025 0.003122005 -0.0007022034 0.025 0.003122005 0.0007022029 0.025 0.003150832 -0.002464195 -0.025 0.003150832 -0.002464195 0.0242 0.003150832 0.002464195 -0.025 0.003150832 0.002464195 0.0242 0.003171848 -0.0004235327 0.025 0.003171848 0.0004235321 0.025 0.003196868 -0.0001415469 0.025 0.003196868 0.0001415463 0.025 0.0032 -4.079193e-10 0.025 0.003356288 -0.002176082 -0.025 0.003356288 -0.002176082 0.0242 0.003356288 0.002176081 -0.025 0.003356288 0.002176081 0.0242 0.003535477 -0.001870937 -0.025 0.003535477 -0.001870937 0.0242 0.003535477 0.001870937 -0.025 0.003535477 0.001870937 0.0242 0.003686996 -0.00155115 -0.025 0.003686996 -0.00155115 0.0242 0.003686996 0.001551149 -0.025 0.003686996 0.001551149 0.0242 0.003809659 -0.001219223 -0.025 0.003809659 -0.001219223 0.0242 0.003809659 0.001219223 -0.025 0.003809659 0.001219223 0.0242 0.003902506 -0.0008777544 -0.025 0.003902506 -0.0008777544 0.0242 0.003902506 0.0008777543 -0.025 0.003902506 0.0008777543 0.0242 0.00396481 -0.0005294155 -0.025 0.00396481 -0.0005294155 0.0242 0.00396481 0.0005294152 -0.025 0.00396481 0.0005294152 0.0242 0.003996085 -0.0001769337 -0.025 0.003996085 -0.0001769337 0.0242 0.003996085 0.0001769334 -0.025 0.003996085 0.0001769334 0.0242 0.004 -4.079193e-10 -0.025 0.004 -4.079193e-10 0.0242</float_array>
          <technique_common>
            <accessor count="218" source="#cubeverts-array0-array" stride="3">
              <param type="float" name="X" />
              <param type="float" name="Y" />
              <param type="float" name="Z" />
            </accessor>
          </technique_common>
        </source>
        <source id="cubenormals-array0">
          <float_array count="1296" id="cubenormals-array0-array">0.9997553 0.02212057 -0 0.9997553 -0.02212063 0 0.9997553 -0.02212063 0 0.9960869 -0.0883802 0 0.9960869 -0.0883802 0 0.9843782 -0.1760676 0 0.9843782 -0.1760676 0 0.9649647 -0.2623795 0 0.9649647 -0.2623795 0 0.9379997 -0.3466362 0 0.9379997 -0.3466362 0 0.9036934 -0.4281802 0 0.9036934 -0.4281802 0 0.8623143 -0.5063733 0 0.8623143 -0.5063733 0 0.8141874 -0.5806022 0 0.8141874 -0.5806022 0 0.7596875 -0.6502883 0 0.7596875 -0.6502883 0 0.6992419 -0.7148851 0 0.6992419 -0.7148851 0 0.6333228 -0.7738877 0 0.6333228 -0.7738877 0 0.5624491 -0.8268319 0 0.5624491 -0.8268319 0 0.4871733 -0.8733052 0 0.4871733 -0.8733052 0 0.4080834 -0.9129447 0 0.4080834 -0.9129447 0 0.3258009 -0.9454384 0 0.3258009 -0.9454384 0 0.2409678 -0.9705332 0 0.2409678 -0.9705332 0 0.1542486 -0.9880321 0 0.1542486 -0.9880321 0 0.06632221 -0.9977983 0 0.06632221 -0.9977983 0 -0.02212198 -0.9997553 0 -0.02212198 -0.9997553 0 -0.1103937 -0.9938879 0 -0.1103937 -0.9938879 0 -0.1978014 -0.9802421 0 -0.1978014 -0.9802421 0 -0.283662 -0.9589244 0 -0.283662 -0.9589244 0 -0.3673016 -0.9301019 0 -0.3673016 -0.9301019 0 -0.4480667 -0.8940002 0 -0.4480667 -0.8940002 0 -0.5253257 -0.8509012 0 -0.5253257 -0.8509012 0 -0.5984719 -0.8011439 0 -0.5984719 -0.8011439 0 -0.6669357 -0.7451153 0 -0.6669357 -0.7451153 0 -0.7301789 -0.6832561 0 -0.7301789 -0.6832561 0 -0.7877083 -0.6160483 0 -0.7877083 -0.6160483 0 -0.8390716 -0.5440209 0 -0.8390716 -0.5440209 0 -0.8838693 -0.4677338 0 -0.8838693 -0.4677338 0 -0.9217488 -0.3877877 0 -0.9217488 -0.3877877 0 -0.9524147 -0.3048055 0 -0.9524147 -0.3048055 0 -0.9756263 -0.2194386 0 -0.9756263 -0.2194386 0 -0.9912024 -0.1323546 0 -0.9912024 -0.1323546 0 -0.9990212 -0.0442332 0 -0.9990212 -0.0442332 0 -0.9990212 0.0442332 0 -0.9990212 0.0442332 0 -0.9912024 0.1323545 0 -0.9912024 0.1323545 0 -0.9756264 0.2194383 0 -0.9756264 0.2194383 0 -0.9524145 0.3048058 0 -0.9524145 0.3048058 0 -0.9217488 0.3877877 0 -0.9217488 0.3877877 0 -0.8838695 0.4677336 0 -0.8838695 0.4677336 0 -0.8390716 0.5440209 0 -0.8390716 0.5440209 0 -0.7877083 0.6160483 0 -0.7877083 0.6160483 0 -0.7301789 0.6832561 0 -0.7301789 0.6832561 0 -0.666935 0.745116 0 -0.666935 0.745116 0 -0.5984722 0.8011435 0 -0.5984722 0.8011435 0 -0.5253252 0.8509015 0 -0.5253252 0.8509015 0 -0.4480667 0.8940002 0 -0.4480667 0.8940002 0 -0.3673016 0.9301019 0 -0.3673016 0.9301019 0 -0.2836632 0.958924 0 -0.2836632 0.958924 0 -0.1977988 0.9802426 0 -0.1977988 0.9802426 0 -0.1103957 0.9938877 0 -0.1103957 0.9938877 0 -0.02212333 0.9997553 0 -0.02212333 0.9997553 0 0.06632288 0.9977982 0 0.06632288 0.9977982 -0 0.1542486 0.9880321 0 0.1542486 0.9880321 -0 0.2409703 0.9705325 0 0.2409703 0.9705325 -0 0.3257985 0.9454393 0 0.3257985 0.9454393 -0 0.4080839 0.9129444 0 0.4080839 0.9129444 -0 0.4871733 0.8733052 0 0.4871733 0.8733052 -0 0.5624491 0.8268319 0 0.5624491 0.8268319 -0 0.6333228 0.7738877 0 0.6333228 0.7738877 -0 0.6992419 0.7148851 0 0.6992419 0.7148851 -0 0.7596878 0.650288 0 0.7596878 0.650288 -0 0.8141872 0.5806025 0 0.8141872 0.5806025 -0 0.8623142 0.5063736 0 0.8623142 0.5063736 -0 0.9036934 0.4281799 0 0.9036934 0.4281799 -0 0.9379997 0.3466362 0 0.9379997 0.3466362 -0 0.9649647 0.2623798 0 0.9649647 0.2623798 -0 0.984378 0.1760675 0 0.984378 0.1760675 -0 0.9960869 0.0883802 0 0.9960869 0.0883802 -0 0.9997553 0.02212057 0 0 0 1 0 0 1 0 0 1 0 0 1 0 0 1 0 0 1 0 0 1 0 0 1 0 0 1 0 0 1 0 0 1 0 0 1 0 0 1 0 0 1 0 0 1 0 0 1 0 0 1 0 0 1 0 0 1 0 0 1 0 0 1 0 0 1 0 -0 1 0 -0 1 0 0 1 0 -0 1 0 -0 1 0 0 1 0 -0 1 0 -0 1 0 0 1 0 -0 1 0 -0 1 0 0 1 0 -0 1 0 -0 1 0 0 1 0 0 1 0 -0 1 0 0 1 -0 0 1 -0 0 1 0 0 1 -0 0 1 -0 0 1 0 0 1 -0 0 1 -0 0 1 0 0 1 -0 0 1 -0 0 1 0 0 1 -0 0 1 -0 0 1 0 0 1 0 0 1 -0 0 1 0 0 1 0 0 1 0 0 1 0 0 1 0 0 1 0 0 1 0 0 1 0 0 1 0 0 1 0 0 1 0 0 1 0 0 1 0 0 1 0 0 1 0 0 1 0 0 -1 0 0 -1 0 0 -1 0 0 -1 -0 0 -1 -0 0 -1 0 0 -1 -0 0 -1 -0 0 -1 0 0 -1 -0 0 -1 -0 0 -1 0 0 -1 -0 0 -1 -0 0 -1 0 0 -1 -0 0 -1 -0 0 -1 0 0 -1 0 0 -1 -0 0 -1 0 0 -1 0 -0 -1 0 -0 -1 0 0 -1 0 -0 -1 0 -0 -1 0 0 -1 0 -0 -1 0 -0 -1 0 0 -1 0 -0 -1 0 -0 -1 0 0 -1 0 -0 -1 0 -0 -1 0 0 -1 0 0 -1 0 -0 -1 0 0 -1 0 0 -1 0 0 -1 0 0 -1 0 0 -1 0 0 -1 0 0 -1 0 0 -1 0 0 -1 0 0 -1 0 0 -1 0 0 -1 0 0 -1 0 0 -1 0 0 -1 0 0 -1 0 0 -1 0 0 -1 0 0 -1 0 0 -1 0 0 -1 0 0 -1 0 0 -1 0 0 -1 0 0 -1 0 0 -1 0 0 -1 0 0 -1 0 0 -1 0 0 -1 0 0 -1 0 0 -1 0 0 -1 0.7070215 0.01564344 0.707019 0.7070215 -0.01564359 0.707019 0.7070215 -0.01564347 0.707019 0.7046858 -0.06252439 0.7067593 0.7046859 -0.06252494 0.7067592 0.6964024 -0.1245604 0.7067591 0.6964024 -0.1245598 0.7067592 0.6826683 -0.1856215 0.7067593 0.6826683 -0.1856215 0.7067593 0.6635916 -0.2452296 0.7067592 0.6635917 -0.2452292 0.7067593 0.6393221 -0.3029166 0.7067593 0.6393218 -0.3029179 0.7067591 0.6100481 -0.3582359 0.7067591 0.6100481 -0.358236 0.706759 0.576 -0.41075 0.706759 0.5760003 -0.4107494 0.7067592 0.5374445 -0.4600488 0.7067592 0.5374442 -0.4600492 0.7067591 0.4946807 -0.5057496 0.7067591 0.4946815 -0.5057484 0.7067594 0.4480483 -0.5474886 0.7067594 0.448047 -0.5474902 0.706759 0.3979062 -0.5849466 0.7067589 0.397907 -0.5849457 0.7067592 0.3446527 -0.6178235 0.7067592 0.3446528 -0.6178235 0.7067592 0.2887003 -0.6458665 0.7067592 0.2887003 -0.6458665 0.7067592 0.2304896 -0.6688542 0.7067592 0.2304892 -0.6688545 0.7067591 0.1704737 -0.6866078 0.7067592 0.1704737 -0.6866078 0.7067592 0.1091234 -0.6989876 0.7067591 0.1091238 -0.6989874 0.7067592 0.04692071 -0.7058965 0.7067592 0.04691993 -0.7058967 0.706759 -0.01565018 -0.7072812 0.706759 -0.01565029 -0.7072812 0.706759 -0.07809898 -0.7031304 0.706759 -0.07809852 -0.7031303 0.706759 -0.1399358 -0.6934764 0.706759 -0.1399354 -0.6934764 0.7067591 -0.2006776 -0.6783952 0.7067592 -0.2006779 -0.6783951 0.7067592 -0.2598494 -0.6580045 0.7067592 -0.259849 -0.6580045 0.7067592 -0.3169864 -0.6324642 0.7067592 -0.3169866 -0.6324642 0.7067591 -0.3716431 -0.6019742 0.7067592 -0.371644 -0.6019738 0.706759 -0.4233918 -0.5667725 0.706759 -0.4233915 -0.5667727 0.7067591 -0.4718271 -0.5271345 0.706759 -0.4718265 -0.5271349 0.7067592 -0.516568 -0.4833724 0.7067592 -0.5165681 -0.4833724 0.7067592 -0.5572674 -0.4358263 0.7067592 -0.5572677 -0.435826 0.7067592 -0.5936052 -0.3848694 0.7067592 -0.5936047 -0.3848698 0.7067593 -0.6252967 -0.330901 0.7067593 -0.6252972 -0.3309003 0.7067591 -0.6520954 -0.2743414 0.7067591 -0.6520949 -0.274342 0.7067592 -0.6737894 -0.2156365 0.7067593 -0.6737898 -0.2156359 0.7067591 -0.690211 -0.1552428 0.7067591 -0.690211 -0.1552428 0.7067591 -0.7012305 -0.09363412 0.7067591 -0.7012303 -0.09363483 0.7067592 -0.7067617 -0.03129321 0.7067593 -0.7067618 -0.03129296 0.7067592 -0.7067617 0.03129319 0.7067592 -0.7067617 0.03129296 0.7067592 -0.7012304 0.09363394 0.7067593 -0.7012305 0.09363479 0.7067591 -0.690211 0.1552432 0.7067591 -0.690211 0.1552425 0.7067592 -0.6737896 0.2156361 0.7067593 -0.6737896 0.2156362 0.7067592 -0.6520953 0.2743413 0.7067592 -0.6520951 0.2743421 0.706759 -0.6252968 0.3309011 0.706759 -0.6252972 0.3309 0.7067592 -0.593605 0.3848693 0.7067592 -0.5936048 0.3848699 0.7067592 -0.5572674 0.4358263 0.7067591 -0.5572676 0.435826 0.7067592 -0.5165681 0.4833725 0.7067592 -0.5165681 0.4833723 0.7067592 -0.4718267 0.5271347 0.7067593 -0.471826 0.5271356 0.706759 -0.4233918 0.5667725 0.706759 -0.4233918 0.5667725 0.706759 -0.3716432 0.6019743 0.706759 -0.3716436 0.601974 0.706759 -0.316986 0.6324646 0.7067591 -0.3169866 0.6324642 0.7067592 -0.2598498 0.6580042 0.7067592 -0.2598491 0.6580046 0.706759 -0.2006777 0.6783953 0.706759 -0.2006787 0.6783947 0.7067592 -0.1399369 0.693476 0.7067593 -0.1399337 0.6934773 0.7067586 -0.07809785 0.7031309 0.7067586 -0.07809995 0.7031303 0.706759 -0.01565078 0.7072813 0.706759 -0.01565124 0.7072811 0.7067591 0.0469213 0.7058965 0.706759 0.04692039 0.7058964 0.7067593 0.1091239 0.6989874 0.7067593 0.1091238 0.6989873 0.7067593 0.1704725 0.6866078 0.7067593 0.1704756 0.6866078 0.7067588 0.2304908 0.6688543 0.7067587 0.2304874 0.6688548 0.7067594 0.2886992 0.6458668 0.7067595 0.2887007 0.6458665 0.7067592 0.3446527 0.6178236 0.7067592 0.3446529 0.6178235 0.7067591 0.3979069 0.5849459 0.7067591 0.397907 0.5849459 0.7067591 0.4480482 0.5474892 0.706759 0.4480468 0.54749 0.7067593 0.4946804 0.5057493 0.7067594 0.4946817 0.5057486 0.7067591 0.5374445 0.4600489 0.706759 0.5374444 0.460049 0.7067591 0.5759999 0.4107502 0.7067591 0.5760003 0.4107498 0.706759 0.6100481 0.3582359 0.706759 0.6100479 0.3582362 0.7067591 0.6393225 0.3029166 0.706759 0.6393217 0.3029176 0.7067593 0.6635914 0.2452297 0.7067593 0.6635917 0.2452292 0.7067592 0.6826683 0.1856214 0.7067593 0.6826682 0.1856217 0.7067593 0.6964022 0.1245603 0.7067593 0.6964025 0.1245597 0.7067591 0.7046859 0.0625244 0.7067591 0.7046857 0.06252494 0.7067592 0.7070215 0.01564354 0.707019</float_array>
          <technique_common>
            <accessor count="432" source="#cubenormals-array0-array" stride="3">
              <param type="float" name="X" />
              <param type="float" name="Y" />
              <param type="float" name="Z" />
            </accessor>
          </technique_common>
        </source>
        <vertices id="cubeverts-array0-vertices">
          <input semantic="POSITION" source="#cubeverts-array0" />
        </vertices>
        <triangles count="432" material="ref_RGOCG8_50_8mm">
          <input offset="0" semantic="VERTEX" source="#cubeverts-array0-vertices" />
          <input offset="1" semantic="NORMAL" source="#cubenormals-array0" />
          <p>216 0 215 0 217 0 212 1 216 1 217 1 212 2 217 2 213 2 209 3 212 3 213 3 208 4 212 4 209 4 205 5 208 5 209 5 204 6 208 6 205 6 201 7 204 7 205 7 200 8 204 8 201 8 197 9 200 9 201 9 196 10 200 10 197 10 193 11 196 11 197 11 192 12 196 12 193 12 189 13 192 13 193 13 188 14 192 14 189 14 180 15 188 15 189 15 179 16 188 16 180 16 170 17 179 17 180 17 169 18 179 18 170 18 162 19 169 19 170 19 161 20 169 20 162 20 156 21 161 21 162 21 155 22 161 22 156 22 148 23 155 23 156 23 147 24 155 24 148 24 142 25 147 25 148 25 141 26 147 26 142 26 136 27 141 27 142 27 135 28 141 28 136 28 128 29 135 29 136 29 127 30 135 30 128 30 122 31 127 31 128 31 121 32 127 32 122 32 116 33 121 33 122 33 115 34 121 34 116 34 110 35 115 35 116 35 109 36 115 36 110 36 100 37 109 37 110 37 99 38 109 38 100 38 94 39 99 39 100 39 93 40 99 40 94 40 88 41 93 41 94 41 87 42 93 42 88 42 82 43 87 43 88 43 81 44 87 44 82 44 74 45 81 45 82 45 73 46 81 46 74 46 68 47 73 47 74 47 67 48 73 48 68 48 60 49 67 49 68 49 59 50 67 50 60 50 54 51 59 51 60 51 53 52 59 52 54 52 46 53 53 53 54 53 45 54 53 54 46 54 38 55 45 55 46 55 37 56 45 56 38 56 27 57 37 57 38 57 26 58 37 58 27 58 23 59 26 59 27 59 22 60 26 60 23 60 19 61 22 61 23 61 18 62 22 62 19 62 15 63 18 63 19 63 14 64 18 64 15 64 11 65 14 65 15 65 10 66 14 66 11 66 7 67 10 67 11 67 6 68 10 68 7 68 3 69 6 69 7 69 2 70 6 70 3 70 1 71 2 71 3 71 0 72 2 72 1 72 5 73 0 73 1 73 4 74 0 74 5 74 9 75 4 75 5 75 8 76 4 76 9 76 13 77 8 77 9 77 12 78 8 78 13 78 17 79 12 79 13 79 16 80 12 80 17 80 21 81 16 81 17 81 20 82 16 82 21 82 25 83 20 83 21 83 24 84 20 84 25 84 29 85 24 85 25 85 28 86 24 86 29 86 40 87 28 87 29 87 39 88 28 88 40 88 48 89 39 89 40 89 47 90 39 90 48 90 56 91 47 91 48 91 55 92 47 92 56 92 62 93 55 93 56 93 61 94 55 94 62 94 70 95 61 95 62 95 69 96 61 96 70 96 76 97 69 97 70 97 75 98 69 98 76 98 84 99 75 99 76 99 83 100 75 100 84 100 90 101 83 101 84 101 89 102 83 102 90 102 96 103 89 103 90 103 95 104 89 104 96 104 102 105 95 105 96 105 101 106 95 106 102 106 112 107 101 107 102 107 111 108 101 108 112 108 118 109 111 109 112 109 117 110 111 110 118 110 124 111 117 111 118 111 123 112 117 112 124 112 130 113 123 113 124 113 129 114 123 114 130 114 138 115 129 115 130 115 137 116 129 116 138 116 144 117 137 117 138 117 143 118 137 118 144 118 150 119 143 119 144 119 149 120 143 120 150 120 158 121 149 121 150 121 157 122 149 122 158 122 164 123 157 123 158 123 163 124 157 124 164 124 172 125 163 125 164 125 171 126 163 126 172 126 182 127 171 127 172 127 181 128 171 128 182 128 191 129 181 129 182 129 190 130 181 130 191 130 195 131 190 131 191 131 194 132 190 132 195 132 199 133 194 133 195 133 198 134 194 134 199 134 203 135 198 135 199 135 202 136 198 136 203 136 207 137 202 137 203 137 206 138 202 138 207 138 211 139 206 139 207 139 210 140 206 140 211 140 215 141 210 141 211 141 214 142 210 142 215 142 216 143 214 143 215 143 106 144 183 144 185 144 187 145 106 145 185 145 186 146 106 146 187 146 106 147 173 147 175 147 177 148 106 148 175 148 183 149 106 149 177 149 106 150 159 150 165 150 167 151 106 151 165 151 173 152 106 152 167 152 106 153 145 153 151 153 153 154 106 154 151 154 159 155 106 155 153 155 106 156 131 156 133 156 139 157 106 157 133 157 145 158 106 158 139 158 106 159 113 159 119 159 125 160 106 160 119 160 131 161 106 161 125 161 106 162 97 162 103 162 107 163 106 163 103 163 113 164 106 164 107 164 106 165 79 165 85 165 91 166 106 166 85 166 97 167 106 167 91 167 106 168 65 168 71 168 77 169 106 169 71 169 79 170 106 170 77 170 106 171 51 171 57 171 63 172 106 172 57 172 65 173 106 173 63 173 106 174 41 174 43 174 49 175 106 175 43 175 51 176 106 176 49 176 106 177 31 177 33 177 35 178 106 178 33 178 41 179 106 179 35 179 106 180 34 180 32 180 30 181 106 181 32 181 31 182 106 182 30 182 106 183 44 183 42 183 36 184 106 184 42 184 34 185 106 185 36 185 106 186 58 186 52 186 50 187 106 187 52 187 44 188 106 188 50 188 106 189 72 189 66 189 64 190 106 190 66 190 58 191 106 191 64 191 106 192 86 192 80 192 78 193 106 193 80 193 72 194 106 194 78 194 106 195 104 195 98 195 92 196 106 196 98 196 86 197 106 197 92 197 106 198 120 198 114 198 108 199 106 199 114 199 104 200 106 200 108 200 106 201 134 201 132 201 126 202 106 202 132 202 120 203 106 203 126 203 106 204 152 204 146 204 140 205 106 205 146 205 134 206 106 206 140 206 106 207 166 207 160 207 154 208 106 208 160 208 152 209 106 209 154 209 106 210 176 210 174 210 168 211 106 211 174 211 166 212 106 212 168 212 106 213 186 213 184 213 178 214 106 214 184 214 176 215 106 215 178 215 105 216 210 216 214 216 216 217 105 217 214 217 212 218 105 218 216 218 105 219 198 219 202 219 206 220 105 220 202 220 210 221 105 221 206 221 105 222 181 222 190 222 194 223 105 223 190 223 198 224 105 224 194 224 105 225 157 225 163 225 171 226 105 226 163 226 181 227 105 227 171 227 105 228 137 228 143 228 149 229 105 229 143 229 157 230 105 230 149 230 105 231 117 231 123 231 129 232 105 232 123 232 137 233 105 233 129 233 105 234 95 234 101 234 111 235 105 235 101 235 117 236 105 236 111 236 105 237 75 237 83 237 89 238 105 238 83 238 95 239 105 239 89 239 105 240 55 240 61 240 69 241 105 241 61 241 75 242 105 242 69 242 105 243 28 243 39 243 47 244 105 244 39 244 55 245 105 245 47 245 105 246 16 246 20 246 24 247 105 247 20 247 28 248 105 248 24 248 105 249 4 249 8 249 12 250 105 250 8 250 16 251 105 251 12 251 105 252 6 252 2 252 0 253 105 253 2 253 4 254 105 254 0 254 105 255 18 255 14 255 10 256 105 256 14 256 6 257 105 257 10 257 105 258 37 258 26 258 22 259 105 259 26 259 18 260 105 260 22 260 105 261 59 261 53 261 45 262 105 262 53 262 37 263 105 263 45 263 105 264 81 264 73 264 67 265 105 265 73 265 59 266 105 266 67 266 105 267 99 267 93 267 87 268 105 268 93 268 81 269 105 269 87 269 105 270 121 270 115 270 109 271 105 271 115 271 99 272 105 272 109 272 105 273 141 273 135 273 127 274 105 274 135 274 121 275 105 275 127 275 105 276 161 276 155 276 147 277 105 277 155 277 141 278 105 278 147 278 105 279 188 279 179 279 169 280 105 280 179 280 161 281 105 281 169 281 105 282 200 282 196 282 192 283 105 283 196 283 188 284 105 284 192 284 105 285 212 285 208 285 204 286 105 286 208 286 200 287 105 287 204 287 217 288 186 288 187 288 213 289 217 289 187 289 213 290 187 290 185 290 183 291 213 291 185 291 209 292 213 292 183 292 177 293 209 293 183 293 205 294 209 294 177 294 175 295 205 295 177 295 201 296 205 296 175 296 173 297 201 297 175 297 197 298 201 298 173 298 167 299 197 299 173 299 193 300 197 300 167 300 165 301 193 301 167 301 189 302 193 302 165 302 159 303 189 303 165 303 180 304 189 304 159 304 153 305 180 305 159 305 170 306 180 306 153 306 151 307 170 307 153 307 162 308 170 308 151 308 145 309 162 309 151 309 156 310 162 310 145 310 139 311 156 311 145 311 148 312 156 312 139 312 133 313 148 313 139 313 142 314 148 314 133 314 131 315 142 315 133 315 136 316 142 316 131 316 125 317 136 317 131 317 128 318 136 318 125 318 119 319 128 319 125 319 122 320 128 320 119 320 113 321 122 321 119 321 116 322 122 322 113 322 107 323 116 323 113 323 110 324 116 324 107 324 103 325 110 325 107 325 100 326 110 326 103 326 97 327 100 327 103 327 94 328 100 328 97 328 91 329 94 329 97 329 88 330 94 330 91 330 85 331 88 331 91 331 82 332 88 332 85 332 79 333 82 333 85 333 74 334 82 334 79 334 77 335 74 335 79 335 68 336 74 336 77 336 71 337 68 337 77 337 60 338 68 338 71 338 65 339 60 339 71 339 54 340 60 340 65 340 63 341 54 341 65 341 46 342 54 342 63 342 57 343 46 343 63 343 38 344 46 344 57 344 51 345 38 345 57 345 27 346 38 346 51 346 49 347 27 347 51 347 23 348 27 348 49 348 43 349 23 349 49 349 19 350 23 350 43 350 41 351 19 351 43 351 15 352 19 352 41 352 35 353 15 353 41 353 11 354 15 354 35 354 33 355 11 355 35 355 7 356 11 356 33 356 31 357 7 357 33 357 3 358 7 358 31 358 30 359 3 359 31 359 1 360 3 360 30 360 32 361 1 361 30 361 5 362 1 362 32 362 34 363 5 363 32 363 9 364 5 364 34 364 36 365 9 365 34 365 13 366 9 366 36 366 42 367 13 367 36 367 17 368 13 368 42 368 44 369 17 369 42 369 21 370 17 370 44 370 50 371 21 371 44 371 25 372 21 372 50 372 52 373 25 373 50 373 29 374 25 374 52 374 58 375 29 375 52 375 40 376 29 376 58 376 64 377 40 377 58 377 48 378 40 378 64 378 66 379 48 379 64 379 56 380 48 380 66 380 72 381 56 381 66 381 62 382 56 382 72 382 78 383 62 383 72 383 70 384 62 384 78 384 80 385 70 385 78 385 76 386 70 386 80 386 86 387 76 387 80 387 84 388 76 388 86 388 92 389 84 389 86 389 90 390 84 390 92 390 98 391 90 391 92 391 96 392 90 392 98 392 104 393 96 393 98 393 102 394 96 394 104 394 108 395 102 395 104 395 112 396 102 396 108 396 114 397 112 397 108 397 118 398 112 398 114 398 120 399 118 399 114 399 124 400 118 400 120 400 126 401 124 401 120 401 130 402 124 402 126 402 132 403 130 403 126 403 138 404 130 404 132 404 134 405 138 405 132 405 144 406 138 406 134 406 140 407 144 407 134 407 150 408 144 408 140 408 146 409 150 409 140 409 158 410 150 410 146 410 152 411 158 411 146 411 164 412 158 412 152 412 154 413 164 413 152 413 172 414 164 414 154 414 160 415 172 415 154 415 182 416 172 416 160 416 166 417 182 417 160 417 191 418 182 418 166 418 168 419 191 419 166 419 195 420 191 420 168 420 174 421 195 421 168 421 199 422 195 422 174 422 176 423 199 423 174 423 203 424 199 424 176 424 178 425 203 425 176 425 207 426 203 426 178 426 184 427 207 427 178 427 211 428 207 428 184 428 186 429 211 429 184 429 215 430 211 430 186 430 217 431 215 431 186 431</p>
        </triangles>
      </mesh>
    </geometry>
  </library_geometries>
  <library_materials>
    <material id="mat_RGOCG8_50_8mm" name="RGOCG8_50_8mm">
      <instance_effect url="#effect_RGOCG8_50_8mm" />
    </material>
  </library_materials>
  <library_visual_scenes>
    <visual_scene id="myscene">
      <node id="node0" name="node0">
        <instance_geometry url="#geometry0">
          <bind_material>
            <technique_common>
              <instance_material symbol="ref_RGOCG8_50_8mm" target="#mat_RGOCG8_50_8mm" />
            </technique_common>
          </bind_material>
        </instance_geometry>
      </node>
    </visual_scene>
  </library_visual_scenes>
  <scene>
    <instance_visual_scene url="#myscene" />
  </scene>
</COLLADA>
